<?xml version="1.0" encoding="iso-8859-1"?>
<!-- Generator: Adobe Illustrator 19.0.0, SVG Export Plug-In . SVG Version: 6.00 Build 0)  -->
<svg version="1.1" id="Layer_1" xmlns="http://www.w3.org/2000/svg" xmlns:xlink="http://www.w3.org/1999/xlink" x="0px" y="0px"
	 viewBox="0 0 512 512" style="enable-background:new 0 0 512 512;" xml:space="preserve">
<g>
	<g>
		<g>
			<path d="M117.333,426.667h277.333c1.472,0,2.88-0.299,4.16-0.832c3.819-1.621,6.507-5.397,6.507-9.792V53.333
				c0-5.888-4.779-10.667-10.667-10.667H117.333c-5.888,0-10.667,4.779-10.667,10.667V416
				C106.667,421.888,111.445,426.667,117.333,426.667z M128,64h256v280.213c-6.123-3.392-12.608-5.995-19.371-7.68l-51.136-12.779
				l-3.499-13.973c13.483-13.973,22.848-32.555,26.133-51.733c8.171-3.2,14.315-10.688,15.445-19.84l3.477-27.819
				c0.875-6.933-1.259-13.909-5.845-19.179c-2.069-2.389-4.565-4.309-7.317-5.717l1.088-22.229l4.267-4.288
				c7.168-7.637,16.832-24,1.152-47.936c-11.157-17.067-29.931-25.707-55.808-25.707c-9.877,0-32.469,0-53.909,13.995
				c-61.867,1.643-69.888,32.448-69.888,59.285c0,5.824,1.237,17.771,2.219,26.389c-3.072,1.408-5.845,3.456-8.128,6.037
				c-4.651,5.291-6.827,12.309-5.952,19.307l3.477,27.819c1.216,9.771,8.128,17.643,17.152,20.437
				c3.285,18.325,12.139,36.181,24.768,49.856l-3.819,15.253l-51.136,12.779c-6.763,1.685-13.248,4.309-19.371,7.701V64z
				 M128,370.027c7.168-6.165,15.573-10.581,24.533-12.821l57.344-14.336c3.819-0.96,6.827-3.947,7.765-7.765l6.827-27.285
				c0.939-3.755-0.235-7.723-3.051-10.368c-13.397-12.587-22.272-30.997-23.723-49.28c-0.448-5.547-5.077-9.813-10.645-9.813h-2.261
				c-1.643,0-3.029-1.216-3.221-2.837l-3.477-27.819c-0.149-1.259,0.427-2.133,0.789-2.56c0.363-0.405,1.173-1.088,3.883-1.088
				c3.072,0,5.973-1.301,8-3.605c2.027-2.283,2.965-5.333,2.581-8.384c-0.896-7.061-3.2-26.837-3.2-33.451
				c0-16.704,0-37.504,52.032-38.016c2.176-0.021,4.331-0.704,6.101-1.984c14.677-10.517,30.635-11.925,44.309-11.925
				c18.475,0,30.891,5.248,37.952,16.043c8.832,13.461,3.84,18.773,1.387,21.376l-6.955,6.955c-1.877,1.877-2.987,4.395-3.115,7.04
				l-1.685,34.816c-0.128,2.901,0.917,5.717,2.901,7.829s4.736,3.328,7.637,3.349c1.28,0,2.069,0.704,2.432,1.109
				c0.427,0.491,0.917,1.323,0.768,2.496l-3.477,27.84c-0.213,1.621-1.6,2.837-3.904,2.837c-5.568,0-10.197,4.267-10.645,9.813
				c-1.493,18.56-11.008,37.803-24.853,50.219c-2.944,2.645-4.181,6.699-3.221,10.539l6.549,26.155
				c0.96,3.797,3.947,6.805,7.765,7.744l57.344,14.336c8.96,2.261,17.365,6.656,24.533,12.821v35.328H128V370.027z"/>
			<path d="M437.333,0H74.667C68.779,0,64,4.779,64,10.667v490.667C64,507.221,68.779,512,74.667,512h362.667
				c5.888,0,10.667-4.779,10.667-10.667V10.667C448,4.779,443.221,0,437.333,0z M426.667,490.667H85.333V21.333h341.333V490.667z"/>
		</g>
	</g>
</g>
<g>
</g>
<g>
</g>
<g>
</g>
<g>
</g>
<g>
</g>
<g>
</g>
<g>
</g>
<g>
</g>
<g>
</g>
<g>
</g>
<g>
</g>
<g>
</g>
<g>
</g>
<g>
</g>
<g>
</g>
</svg>
